<mxfile host="app.diagrams.net" modified="2022-07-06T08:13:04.627Z" agent="5.0 (X11; Linux x86_64) AppleWebKit/537.36 (KHTML, like Gecko) Chrome/97.0.4692.71 Safari/537.36" etag="9spEpLQsgkgFpKMk8dVc" version="20.0.4" type="github">
  <diagram id="Tw_fr7Q_Ql_QtxzpFWh8" name="Page-1">
    <mxGraphModel dx="1877" dy="431" grid="0" gridSize="10" guides="1" tooltips="1" connect="1" arrows="1" fold="1" page="0" pageScale="1" pageWidth="827" pageHeight="1169" math="0" shadow="0">
      <root>
        <mxCell id="0" />
        <mxCell id="1" parent="0" />
        <mxCell id="7VgIrMxXWwSLGJKAU25n-1" value="Encoder" style="swimlane;fontSize=18;" parent="1" vertex="1">
          <mxGeometry x="-45" y="556" width="486.5" height="573" as="geometry" />
        </mxCell>
        <mxCell id="7VgIrMxXWwSLGJKAU25n-96" value="" style="group" parent="7VgIrMxXWwSLGJKAU25n-1" vertex="1" connectable="0">
          <mxGeometry x="20.995000000000175" y="29.995000000000047" width="102.88999999999987" height="70.52999999999997" as="geometry" />
        </mxCell>
        <mxCell id="7VgIrMxXWwSLGJKAU25n-92" value="" style="verticalLabelPosition=middle;verticalAlign=middle;html=1;shape=trapezoid;perimeter=trapezoidPerimeter;whiteSpace=wrap;size=0.23;arcSize=10;flipV=1;labelPosition=center;align=center;rotation=90;fontSize=15;" parent="7VgIrMxXWwSLGJKAU25n-96" vertex="1">
          <mxGeometry x="-9.574999999999932" y="9.574999999999989" width="70.53" height="51.38" as="geometry" />
        </mxCell>
        <mxCell id="7VgIrMxXWwSLGJKAU25n-93" value="" style="strokeWidth=2;html=1;shape=mxgraph.flowchart.multi-document;whiteSpace=wrap;fontSize=15;" parent="7VgIrMxXWwSLGJKAU25n-96" vertex="1">
          <mxGeometry x="5.185000000000059" y="20.935000000000002" width="41" height="31" as="geometry" />
        </mxCell>
        <mxCell id="7VgIrMxXWwSLGJKAU25n-94" value="" style="verticalLabelPosition=middle;verticalAlign=middle;html=1;shape=trapezoid;perimeter=trapezoidPerimeter;whiteSpace=wrap;size=0.23;arcSize=10;flipV=1;labelPosition=center;align=center;rotation=-90;fontSize=15;" parent="7VgIrMxXWwSLGJKAU25n-96" vertex="1">
          <mxGeometry x="41.854999999999905" y="9.379999999999825" width="69.73" height="52.34" as="geometry" />
        </mxCell>
        <mxCell id="7VgIrMxXWwSLGJKAU25n-95" value="" style="strokeWidth=2;html=1;shape=mxgraph.flowchart.multi-document;whiteSpace=wrap;fontSize=15;" parent="7VgIrMxXWwSLGJKAU25n-96" vertex="1">
          <mxGeometry x="56.21500000000003" y="19.76499999999993" width="41" height="31" as="geometry" />
        </mxCell>
        <mxCell id="7VgIrMxXWwSLGJKAU25n-99" style="edgeStyle=orthogonalEdgeStyle;rounded=0;orthogonalLoop=1;jettySize=auto;html=1;exitX=0.5;exitY=1;exitDx=0;exitDy=0;entryX=0.5;entryY=0;entryDx=0;entryDy=0;fontSize=15;" parent="7VgIrMxXWwSLGJKAU25n-1" source="7VgIrMxXWwSLGJKAU25n-97" target="7VgIrMxXWwSLGJKAU25n-98" edge="1">
          <mxGeometry relative="1" as="geometry" />
        </mxCell>
        <mxCell id="7VgIrMxXWwSLGJKAU25n-97" value="&lt;font style=&quot;font-size: 15px;&quot;&gt;Input&lt;br&gt;Features&lt;/font&gt;" style="rounded=1;whiteSpace=wrap;html=1;" parent="7VgIrMxXWwSLGJKAU25n-1" vertex="1">
          <mxGeometry x="222" y="75" width="86" height="34" as="geometry" />
        </mxCell>
        <mxCell id="7VgIrMxXWwSLGJKAU25n-101" style="edgeStyle=orthogonalEdgeStyle;rounded=0;orthogonalLoop=1;jettySize=auto;html=1;exitX=0.5;exitY=1;exitDx=0;exitDy=0;entryX=0.5;entryY=0;entryDx=0;entryDy=0;fontSize=15;" parent="7VgIrMxXWwSLGJKAU25n-1" source="7VgIrMxXWwSLGJKAU25n-98" target="7VgIrMxXWwSLGJKAU25n-100" edge="1">
          <mxGeometry relative="1" as="geometry" />
        </mxCell>
        <mxCell id="BZtDcLYwUkccwT5Jb_dC-15" style="edgeStyle=orthogonalEdgeStyle;rounded=0;orthogonalLoop=1;jettySize=auto;html=1;exitX=0.5;exitY=1;exitDx=0;exitDy=0;entryX=1;entryY=0.5;entryDx=0;entryDy=0;" parent="7VgIrMxXWwSLGJKAU25n-1" source="7VgIrMxXWwSLGJKAU25n-98" target="BZtDcLYwUkccwT5Jb_dC-7" edge="1">
          <mxGeometry relative="1" as="geometry">
            <Array as="points">
              <mxPoint x="265" y="171" />
              <mxPoint x="331" y="171" />
              <mxPoint x="331" y="362" />
            </Array>
          </mxGeometry>
        </mxCell>
        <mxCell id="7VgIrMxXWwSLGJKAU25n-98" value="Dense" style="rounded=0;whiteSpace=wrap;html=1;fontSize=15;fillColor=#ffe6cc;strokeColor=#d79b00;" parent="7VgIrMxXWwSLGJKAU25n-1" vertex="1">
          <mxGeometry x="219" y="133" width="92" height="31" as="geometry" />
        </mxCell>
        <mxCell id="BZtDcLYwUkccwT5Jb_dC-5" style="edgeStyle=orthogonalEdgeStyle;rounded=0;orthogonalLoop=1;jettySize=auto;html=1;exitX=0.5;exitY=1;exitDx=0;exitDy=0;entryX=0.5;entryY=0;entryDx=0;entryDy=0;" parent="7VgIrMxXWwSLGJKAU25n-1" source="7VgIrMxXWwSLGJKAU25n-100" target="BZtDcLYwUkccwT5Jb_dC-3" edge="1">
          <mxGeometry relative="1" as="geometry" />
        </mxCell>
        <mxCell id="7VgIrMxXWwSLGJKAU25n-100" value="Norm" style="rounded=0;whiteSpace=wrap;html=1;fontSize=15;fillColor=#ffff88;strokeColor=#36393d;" parent="7VgIrMxXWwSLGJKAU25n-1" vertex="1">
          <mxGeometry x="219" y="184" width="92" height="31" as="geometry" />
        </mxCell>
        <mxCell id="BZtDcLYwUkccwT5Jb_dC-3" value="Dense" style="rounded=0;whiteSpace=wrap;html=1;fontSize=15;fillColor=#ffe6cc;strokeColor=#d79b00;" parent="7VgIrMxXWwSLGJKAU25n-1" vertex="1">
          <mxGeometry x="219" y="242" width="92" height="31" as="geometry" />
        </mxCell>
        <mxCell id="BZtDcLYwUkccwT5Jb_dC-8" style="edgeStyle=orthogonalEdgeStyle;rounded=0;orthogonalLoop=1;jettySize=auto;html=1;exitX=0.5;exitY=1;exitDx=0;exitDy=0;entryX=0.5;entryY=0;entryDx=0;entryDy=0;" parent="7VgIrMxXWwSLGJKAU25n-1" source="BZtDcLYwUkccwT5Jb_dC-4" target="BZtDcLYwUkccwT5Jb_dC-7" edge="1">
          <mxGeometry relative="1" as="geometry" />
        </mxCell>
        <mxCell id="BZtDcLYwUkccwT5Jb_dC-4" value="Norm" style="rounded=0;whiteSpace=wrap;html=1;fontSize=15;fillColor=#ffff88;strokeColor=#36393d;" parent="7VgIrMxXWwSLGJKAU25n-1" vertex="1">
          <mxGeometry x="219" y="293" width="92" height="31" as="geometry" />
        </mxCell>
        <mxCell id="BZtDcLYwUkccwT5Jb_dC-2" style="edgeStyle=orthogonalEdgeStyle;rounded=0;orthogonalLoop=1;jettySize=auto;html=1;exitX=0.5;exitY=1;exitDx=0;exitDy=0;entryX=0.5;entryY=0;entryDx=0;entryDy=0;fontSize=15;" parent="7VgIrMxXWwSLGJKAU25n-1" source="BZtDcLYwUkccwT5Jb_dC-3" target="BZtDcLYwUkccwT5Jb_dC-4" edge="1">
          <mxGeometry relative="1" as="geometry" />
        </mxCell>
        <mxCell id="BZtDcLYwUkccwT5Jb_dC-6" value="&lt;font style=&quot;font-size: 14px;&quot;&gt;relu&lt;/font&gt;" style="text;html=1;align=center;verticalAlign=middle;resizable=0;points=[];autosize=1;strokeColor=none;fillColor=none;" parent="7VgIrMxXWwSLGJKAU25n-1" vertex="1">
          <mxGeometry x="265" y="214" width="41" height="29" as="geometry" />
        </mxCell>
        <mxCell id="BZtDcLYwUkccwT5Jb_dC-13" style="edgeStyle=orthogonalEdgeStyle;rounded=0;orthogonalLoop=1;jettySize=auto;html=1;exitX=0.5;exitY=1;exitDx=0;exitDy=0;" parent="7VgIrMxXWwSLGJKAU25n-1" source="BZtDcLYwUkccwT5Jb_dC-7" target="BZtDcLYwUkccwT5Jb_dC-11" edge="1">
          <mxGeometry relative="1" as="geometry" />
        </mxCell>
        <mxCell id="BZtDcLYwUkccwT5Jb_dC-7" value="" style="shape=orEllipse;perimeter=ellipsePerimeter;whiteSpace=wrap;html=1;backgroundOutline=1;" parent="7VgIrMxXWwSLGJKAU25n-1" vertex="1">
          <mxGeometry x="256" y="352" width="18" height="19" as="geometry" />
        </mxCell>
        <mxCell id="BZtDcLYwUkccwT5Jb_dC-11" value="Dense" style="rounded=0;whiteSpace=wrap;html=1;fontSize=15;fillColor=#ffe6cc;strokeColor=#d79b00;" parent="7VgIrMxXWwSLGJKAU25n-1" vertex="1">
          <mxGeometry x="219" y="399" width="92" height="31" as="geometry" />
        </mxCell>
        <mxCell id="ONMY-ekj6MB2KkMMOICS-2" style="edgeStyle=orthogonalEdgeStyle;rounded=0;orthogonalLoop=1;jettySize=auto;html=1;exitX=0.5;exitY=1;exitDx=0;exitDy=0;entryX=0.5;entryY=0;entryDx=0;entryDy=0;" edge="1" parent="7VgIrMxXWwSLGJKAU25n-1" source="BZtDcLYwUkccwT5Jb_dC-12" target="ONMY-ekj6MB2KkMMOICS-1">
          <mxGeometry relative="1" as="geometry" />
        </mxCell>
        <mxCell id="BZtDcLYwUkccwT5Jb_dC-12" value="Norm" style="rounded=0;whiteSpace=wrap;html=1;fontSize=15;fillColor=#ffff88;strokeColor=#36393d;" parent="7VgIrMxXWwSLGJKAU25n-1" vertex="1">
          <mxGeometry x="219" y="450" width="92" height="31" as="geometry" />
        </mxCell>
        <mxCell id="BZtDcLYwUkccwT5Jb_dC-10" style="edgeStyle=orthogonalEdgeStyle;rounded=0;orthogonalLoop=1;jettySize=auto;html=1;exitX=0.5;exitY=1;exitDx=0;exitDy=0;entryX=0.5;entryY=0;entryDx=0;entryDy=0;fontSize=15;" parent="7VgIrMxXWwSLGJKAU25n-1" source="BZtDcLYwUkccwT5Jb_dC-11" target="BZtDcLYwUkccwT5Jb_dC-12" edge="1">
          <mxGeometry relative="1" as="geometry" />
        </mxCell>
        <mxCell id="BZtDcLYwUkccwT5Jb_dC-14" value="&lt;font style=&quot;font-size: 14px;&quot;&gt;relu&lt;/font&gt;" style="text;html=1;align=center;verticalAlign=middle;resizable=0;points=[];autosize=1;strokeColor=none;fillColor=none;" parent="7VgIrMxXWwSLGJKAU25n-1" vertex="1">
          <mxGeometry x="261" y="370" width="41" height="29" as="geometry" />
        </mxCell>
        <mxCell id="ONMY-ekj6MB2KkMMOICS-1" value="&lt;font style=&quot;font-size: 15px;&quot;&gt;Output&lt;br&gt;Features&lt;/font&gt;" style="rounded=1;whiteSpace=wrap;html=1;" vertex="1" parent="7VgIrMxXWwSLGJKAU25n-1">
          <mxGeometry x="222" y="513" width="86" height="34" as="geometry" />
        </mxCell>
        <mxCell id="ONMY-ekj6MB2KkMMOICS-3" value="&lt;font style=&quot;font-size: 14px;&quot;&gt;tanh&lt;/font&gt;" style="text;html=1;align=center;verticalAlign=middle;resizable=0;points=[];autosize=1;strokeColor=none;fillColor=none;" vertex="1" parent="7VgIrMxXWwSLGJKAU25n-1">
          <mxGeometry x="259" y="483" width="45" height="29" as="geometry" />
        </mxCell>
        <mxCell id="ONMY-ekj6MB2KkMMOICS-38" value="[ batch, input_dim ]" style="text;html=1;align=center;verticalAlign=middle;resizable=0;points=[];autosize=1;strokeColor=none;fillColor=none;fontSize=14;" vertex="1" parent="7VgIrMxXWwSLGJKAU25n-1">
          <mxGeometry x="339" y="75" width="136" height="29" as="geometry" />
        </mxCell>
        <mxCell id="ONMY-ekj6MB2KkMMOICS-39" value="[ batch, input_dim&amp;nbsp;x 2 ]" style="text;html=1;align=center;verticalAlign=middle;resizable=0;points=[];autosize=1;strokeColor=none;fillColor=none;fontSize=14;" vertex="1" parent="7VgIrMxXWwSLGJKAU25n-1">
          <mxGeometry x="331" y="135" width="159" height="29" as="geometry" />
        </mxCell>
        <mxCell id="ONMY-ekj6MB2KkMMOICS-40" value="[ batch, input_dim&amp;nbsp;x 2 ]" style="text;html=1;align=center;verticalAlign=middle;resizable=0;points=[];autosize=1;strokeColor=none;fillColor=none;fontSize=14;" vertex="1" parent="7VgIrMxXWwSLGJKAU25n-1">
          <mxGeometry x="327.5" y="242" width="159" height="29" as="geometry" />
        </mxCell>
        <mxCell id="ONMY-ekj6MB2KkMMOICS-41" value="[ batch, embedding_dim ]" style="text;html=1;align=center;verticalAlign=middle;resizable=0;points=[];autosize=1;strokeColor=none;fillColor=none;fontSize=14;" vertex="1" parent="7VgIrMxXWwSLGJKAU25n-1">
          <mxGeometry x="315" y="401" width="175" height="29" as="geometry" />
        </mxCell>
        <mxCell id="ONMY-ekj6MB2KkMMOICS-44" value="[ batch, embedding_dim ]" style="text;html=1;align=center;verticalAlign=middle;resizable=0;points=[];autosize=1;strokeColor=none;fillColor=none;fontSize=14;" vertex="1" parent="7VgIrMxXWwSLGJKAU25n-1">
          <mxGeometry x="315" y="515.5" width="175" height="29" as="geometry" />
        </mxCell>
        <mxCell id="ONMY-ekj6MB2KkMMOICS-10" value="Decoder" style="swimlane;fontSize=18;" vertex="1" parent="1">
          <mxGeometry x="464" y="556" width="461" height="573" as="geometry" />
        </mxCell>
        <mxCell id="ONMY-ekj6MB2KkMMOICS-11" value="" style="group" vertex="1" connectable="0" parent="ONMY-ekj6MB2KkMMOICS-10">
          <mxGeometry x="20.995000000000175" y="29.995000000000047" width="102.88999999999987" height="70.52999999999997" as="geometry" />
        </mxCell>
        <mxCell id="ONMY-ekj6MB2KkMMOICS-12" value="" style="verticalLabelPosition=middle;verticalAlign=middle;html=1;shape=trapezoid;perimeter=trapezoidPerimeter;whiteSpace=wrap;size=0.23;arcSize=10;flipV=1;labelPosition=center;align=center;rotation=90;fontSize=15;" vertex="1" parent="ONMY-ekj6MB2KkMMOICS-11">
          <mxGeometry x="-9.574999999999932" y="9.574999999999989" width="70.53" height="51.38" as="geometry" />
        </mxCell>
        <mxCell id="ONMY-ekj6MB2KkMMOICS-13" value="" style="strokeWidth=2;html=1;shape=mxgraph.flowchart.multi-document;whiteSpace=wrap;fontSize=15;" vertex="1" parent="ONMY-ekj6MB2KkMMOICS-11">
          <mxGeometry x="5.185000000000059" y="20.935000000000002" width="41" height="31" as="geometry" />
        </mxCell>
        <mxCell id="ONMY-ekj6MB2KkMMOICS-14" value="" style="verticalLabelPosition=middle;verticalAlign=middle;html=1;shape=trapezoid;perimeter=trapezoidPerimeter;whiteSpace=wrap;size=0.23;arcSize=10;flipV=1;labelPosition=center;align=center;rotation=-90;fontSize=15;" vertex="1" parent="ONMY-ekj6MB2KkMMOICS-11">
          <mxGeometry x="41.854999999999905" y="9.379999999999825" width="69.73" height="52.34" as="geometry" />
        </mxCell>
        <mxCell id="ONMY-ekj6MB2KkMMOICS-15" value="" style="strokeWidth=2;html=1;shape=mxgraph.flowchart.multi-document;whiteSpace=wrap;fontSize=15;" vertex="1" parent="ONMY-ekj6MB2KkMMOICS-11">
          <mxGeometry x="56.21500000000003" y="19.76499999999993" width="41" height="31" as="geometry" />
        </mxCell>
        <mxCell id="ONMY-ekj6MB2KkMMOICS-16" style="edgeStyle=orthogonalEdgeStyle;rounded=0;orthogonalLoop=1;jettySize=auto;html=1;exitX=0.5;exitY=1;exitDx=0;exitDy=0;entryX=0.5;entryY=0;entryDx=0;entryDy=0;fontSize=15;" edge="1" parent="ONMY-ekj6MB2KkMMOICS-10" source="ONMY-ekj6MB2KkMMOICS-17" target="ONMY-ekj6MB2KkMMOICS-20">
          <mxGeometry relative="1" as="geometry" />
        </mxCell>
        <mxCell id="ONMY-ekj6MB2KkMMOICS-17" value="&lt;font style=&quot;font-size: 15px;&quot;&gt;Input&lt;br&gt;Features&lt;/font&gt;" style="rounded=1;whiteSpace=wrap;html=1;" vertex="1" parent="ONMY-ekj6MB2KkMMOICS-10">
          <mxGeometry x="222" y="75" width="86" height="34" as="geometry" />
        </mxCell>
        <mxCell id="ONMY-ekj6MB2KkMMOICS-18" style="edgeStyle=orthogonalEdgeStyle;rounded=0;orthogonalLoop=1;jettySize=auto;html=1;exitX=0.5;exitY=1;exitDx=0;exitDy=0;entryX=0.5;entryY=0;entryDx=0;entryDy=0;fontSize=15;" edge="1" parent="ONMY-ekj6MB2KkMMOICS-10" source="ONMY-ekj6MB2KkMMOICS-20" target="ONMY-ekj6MB2KkMMOICS-22">
          <mxGeometry relative="1" as="geometry" />
        </mxCell>
        <mxCell id="ONMY-ekj6MB2KkMMOICS-19" style="edgeStyle=orthogonalEdgeStyle;rounded=0;orthogonalLoop=1;jettySize=auto;html=1;exitX=0.5;exitY=1;exitDx=0;exitDy=0;entryX=1;entryY=0.5;entryDx=0;entryDy=0;" edge="1" parent="ONMY-ekj6MB2KkMMOICS-10" source="ONMY-ekj6MB2KkMMOICS-20" target="ONMY-ekj6MB2KkMMOICS-29">
          <mxGeometry relative="1" as="geometry">
            <Array as="points">
              <mxPoint x="265" y="171" />
              <mxPoint x="331" y="171" />
              <mxPoint x="331" y="362" />
            </Array>
          </mxGeometry>
        </mxCell>
        <mxCell id="ONMY-ekj6MB2KkMMOICS-20" value="Dense" style="rounded=0;whiteSpace=wrap;html=1;fontSize=15;fillColor=#ffe6cc;strokeColor=#d79b00;" vertex="1" parent="ONMY-ekj6MB2KkMMOICS-10">
          <mxGeometry x="219" y="133" width="92" height="31" as="geometry" />
        </mxCell>
        <mxCell id="ONMY-ekj6MB2KkMMOICS-21" style="edgeStyle=orthogonalEdgeStyle;rounded=0;orthogonalLoop=1;jettySize=auto;html=1;exitX=0.5;exitY=1;exitDx=0;exitDy=0;entryX=0.5;entryY=0;entryDx=0;entryDy=0;" edge="1" parent="ONMY-ekj6MB2KkMMOICS-10" source="ONMY-ekj6MB2KkMMOICS-22" target="ONMY-ekj6MB2KkMMOICS-23">
          <mxGeometry relative="1" as="geometry" />
        </mxCell>
        <mxCell id="ONMY-ekj6MB2KkMMOICS-22" value="Norm" style="rounded=0;whiteSpace=wrap;html=1;fontSize=15;fillColor=#ffff88;strokeColor=#36393d;" vertex="1" parent="ONMY-ekj6MB2KkMMOICS-10">
          <mxGeometry x="219" y="184" width="92" height="31" as="geometry" />
        </mxCell>
        <mxCell id="ONMY-ekj6MB2KkMMOICS-23" value="Dense" style="rounded=0;whiteSpace=wrap;html=1;fontSize=15;fillColor=#ffe6cc;strokeColor=#d79b00;" vertex="1" parent="ONMY-ekj6MB2KkMMOICS-10">
          <mxGeometry x="219" y="242" width="92" height="31" as="geometry" />
        </mxCell>
        <mxCell id="ONMY-ekj6MB2KkMMOICS-24" style="edgeStyle=orthogonalEdgeStyle;rounded=0;orthogonalLoop=1;jettySize=auto;html=1;exitX=0.5;exitY=1;exitDx=0;exitDy=0;entryX=0.5;entryY=0;entryDx=0;entryDy=0;" edge="1" parent="ONMY-ekj6MB2KkMMOICS-10" source="ONMY-ekj6MB2KkMMOICS-25" target="ONMY-ekj6MB2KkMMOICS-29">
          <mxGeometry relative="1" as="geometry" />
        </mxCell>
        <mxCell id="ONMY-ekj6MB2KkMMOICS-25" value="Norm" style="rounded=0;whiteSpace=wrap;html=1;fontSize=15;fillColor=#ffff88;strokeColor=#36393d;" vertex="1" parent="ONMY-ekj6MB2KkMMOICS-10">
          <mxGeometry x="219" y="293" width="92" height="31" as="geometry" />
        </mxCell>
        <mxCell id="ONMY-ekj6MB2KkMMOICS-26" style="edgeStyle=orthogonalEdgeStyle;rounded=0;orthogonalLoop=1;jettySize=auto;html=1;exitX=0.5;exitY=1;exitDx=0;exitDy=0;entryX=0.5;entryY=0;entryDx=0;entryDy=0;fontSize=15;" edge="1" parent="ONMY-ekj6MB2KkMMOICS-10" source="ONMY-ekj6MB2KkMMOICS-23" target="ONMY-ekj6MB2KkMMOICS-25">
          <mxGeometry relative="1" as="geometry" />
        </mxCell>
        <mxCell id="ONMY-ekj6MB2KkMMOICS-27" value="&lt;font style=&quot;font-size: 14px;&quot;&gt;relu&lt;/font&gt;" style="text;html=1;align=center;verticalAlign=middle;resizable=0;points=[];autosize=1;strokeColor=none;fillColor=none;" vertex="1" parent="ONMY-ekj6MB2KkMMOICS-10">
          <mxGeometry x="265" y="214" width="41" height="29" as="geometry" />
        </mxCell>
        <mxCell id="ONMY-ekj6MB2KkMMOICS-28" style="edgeStyle=orthogonalEdgeStyle;rounded=0;orthogonalLoop=1;jettySize=auto;html=1;exitX=0.5;exitY=1;exitDx=0;exitDy=0;" edge="1" parent="ONMY-ekj6MB2KkMMOICS-10" source="ONMY-ekj6MB2KkMMOICS-29" target="ONMY-ekj6MB2KkMMOICS-30">
          <mxGeometry relative="1" as="geometry" />
        </mxCell>
        <mxCell id="ONMY-ekj6MB2KkMMOICS-29" value="" style="shape=orEllipse;perimeter=ellipsePerimeter;whiteSpace=wrap;html=1;backgroundOutline=1;" vertex="1" parent="ONMY-ekj6MB2KkMMOICS-10">
          <mxGeometry x="256" y="352" width="18" height="19" as="geometry" />
        </mxCell>
        <mxCell id="ONMY-ekj6MB2KkMMOICS-30" value="Dense" style="rounded=0;whiteSpace=wrap;html=1;fontSize=15;fillColor=#ffe6cc;strokeColor=#d79b00;" vertex="1" parent="ONMY-ekj6MB2KkMMOICS-10">
          <mxGeometry x="219" y="399" width="92" height="31" as="geometry" />
        </mxCell>
        <mxCell id="ONMY-ekj6MB2KkMMOICS-31" style="edgeStyle=orthogonalEdgeStyle;rounded=0;orthogonalLoop=1;jettySize=auto;html=1;exitX=0.5;exitY=1;exitDx=0;exitDy=0;entryX=0.5;entryY=0;entryDx=0;entryDy=0;" edge="1" parent="ONMY-ekj6MB2KkMMOICS-10" source="ONMY-ekj6MB2KkMMOICS-32" target="ONMY-ekj6MB2KkMMOICS-35">
          <mxGeometry relative="1" as="geometry" />
        </mxCell>
        <mxCell id="ONMY-ekj6MB2KkMMOICS-32" value="Norm" style="rounded=0;whiteSpace=wrap;html=1;fontSize=15;fillColor=#ffff88;strokeColor=#36393d;" vertex="1" parent="ONMY-ekj6MB2KkMMOICS-10">
          <mxGeometry x="219" y="450" width="92" height="31" as="geometry" />
        </mxCell>
        <mxCell id="ONMY-ekj6MB2KkMMOICS-33" style="edgeStyle=orthogonalEdgeStyle;rounded=0;orthogonalLoop=1;jettySize=auto;html=1;exitX=0.5;exitY=1;exitDx=0;exitDy=0;entryX=0.5;entryY=0;entryDx=0;entryDy=0;fontSize=15;" edge="1" parent="ONMY-ekj6MB2KkMMOICS-10" source="ONMY-ekj6MB2KkMMOICS-30" target="ONMY-ekj6MB2KkMMOICS-32">
          <mxGeometry relative="1" as="geometry" />
        </mxCell>
        <mxCell id="ONMY-ekj6MB2KkMMOICS-34" value="&lt;font style=&quot;font-size: 14px;&quot;&gt;relu&lt;/font&gt;" style="text;html=1;align=center;verticalAlign=middle;resizable=0;points=[];autosize=1;strokeColor=none;fillColor=none;" vertex="1" parent="ONMY-ekj6MB2KkMMOICS-10">
          <mxGeometry x="261" y="370" width="41" height="29" as="geometry" />
        </mxCell>
        <mxCell id="ONMY-ekj6MB2KkMMOICS-35" value="&lt;font style=&quot;font-size: 15px;&quot;&gt;Output&lt;br&gt;Features&lt;/font&gt;" style="rounded=1;whiteSpace=wrap;html=1;" vertex="1" parent="ONMY-ekj6MB2KkMMOICS-10">
          <mxGeometry x="222" y="513" width="86" height="34" as="geometry" />
        </mxCell>
        <mxCell id="ONMY-ekj6MB2KkMMOICS-36" value="&lt;font style=&quot;font-size: 14px;&quot;&gt;tanh&lt;/font&gt;" style="text;html=1;align=center;verticalAlign=middle;resizable=0;points=[];autosize=1;strokeColor=none;fillColor=none;" vertex="1" parent="ONMY-ekj6MB2KkMMOICS-10">
          <mxGeometry x="259" y="483" width="45" height="29" as="geometry" />
        </mxCell>
      </root>
    </mxGraphModel>
  </diagram>
</mxfile>
